<?xml version="1.0" encoding="UTF-8" standalone="no"?>
<svg
   xmlns:dc="http://purl.org/dc/elements/1.1/"
   xmlns:cc="http://creativecommons.org/ns#"
   xmlns:rdf="http://www.w3.org/1999/02/22-rdf-syntax-ns#"
   xmlns:svg="http://www.w3.org/2000/svg"
   xmlns="http://www.w3.org/2000/svg"
   viewBox="0 0 268.61334 37.799999"
   height="37.799999"
   width="268.61334"
   xml:space="preserve"
   id="svg2"
   version="1.1"><metadata
     id="metadata8"><rdf:RDF><cc:Work
         rdf:about=""><dc:format>image/svg+xml</dc:format><dc:type
           rdf:resource="http://purl.org/dc/dcmitype/StillImage" /></cc:Work></rdf:RDF></metadata><defs
     id="defs6" /><g
     transform="matrix(1.3333333,0,0,-1.3333333,0,37.8)"
     id="g10"><g
       transform="scale(0.1)"
       id="g12"><path
         id="path14"
         style="fill:#231f20;fill-opacity:1;fill-rule:nonzero;stroke:none"
         d="m 1868.43,157.297 23.32,55.351 h 8.2 l 22.39,-55.351 h -8.36 l -5.98,14.414 h -25.68 l -5.98,-14.414 z m 16.48,21.004 h 20.63 l -10.04,26.758 z" /><path
         id="path16"
         style="fill:#231f20;fill-opacity:1;fill-rule:nonzero;stroke:none"
         d="m 1938.27,157.297 h -7.28 v 38.484 h 7.28 v -7.429 h 0.16 c 1.07,5.281 5.98,7.968 11.27,7.968 0.92,0 1.69,-0.082 2.53,-0.082 v -6.89 c -1,0.379 -2.14,0.379 -3.14,0.379 -9.2,-0.313 -10.82,-5.215 -10.82,-13.34 v -19.09" /><path
         id="path18"
         style="fill:#231f20;fill-opacity:1;fill-rule:nonzero;stroke:none"
         d="m 1961.74,195.781 v 8.203 l 7.28,2.305 v -10.508 l 8.9,0.235 v -5.45 l -8.9,0.079 v -24.844 c 0,-2.754 2.14,-4.063 4.76,-4.063 1.14,0 2.68,0.157 3.83,0.461 v -5.597 c -1.69,-0.067 -3.3,-0.457 -4.98,-0.457 -1.77,0 -3.15,0.078 -4.92,0.39 -1.14,0.223 -3.06,0.84 -4.28,2.528 -1.31,1.835 -1.69,1.992 -1.69,7.128 v 24.454 l -6.59,-0.079 v 5.45 l 6.59,-0.235" /><path
         id="path20"
         style="fill:#231f20;fill-opacity:1;fill-rule:nonzero;stroke:none"
         d="m 1747.53,181.066 c 0,6.668 -0.38,10.575 -8.12,10.575 -3.68,0 -7.13,-2.149 -7.21,-6.133 h -7.66 c 0.37,8.437 6.98,11.426 14.55,11.426 7.91,0 15.73,-2.383 15.73,-13.114 v -18.398 c 0,-1.692 0.07,-4.902 0.31,-8.125 h -4.92 c -0.69,0 -1.99,-0.383 -2.07,0.535 -0.14,1.77 -0.3,3.449 -0.37,5.215 h -0.16 c -2.38,-4.832 -6.66,-6.902 -11.95,-6.902 -6.68,0 -13.42,3.457 -13.42,10.964 0,10.813 9.59,13.957 18.71,13.957 z m -7.28,-5.058 c -4.44,-0.235 -10.36,-1.848 -10.36,-7.442 0,-4.757 3.31,-7.128 7.6,-7.128 8.58,0 10.2,7.429 10.04,14.57 h -7.28" /><path
         id="path22"
         style="fill:#231f20;fill-opacity:1;fill-rule:nonzero;stroke:none"
         d="m 1774.05,190.109 h 0.16 c 2.46,4.832 7.82,6.825 11.66,6.825 2.68,0 14.57,-0.696 14.57,-13.036 v -26.601 h -7.28 v 24.226 c 0,6.36 -2.7,9.817 -8.83,9.817 0,0 -3.99,0.223 -7.05,-2.844 -1.08,-1.074 -3.07,-2.754 -3.07,-10.273 v -20.926 h -7.28 v 38.484 h 7.12 v -5.672" /><path
         id="path24"
         style="fill:#231f20;fill-opacity:1;fill-rule:nonzero;stroke:none"
         d="m 1839.62,212.648 h 7.27 v -48.527 c 0,-2.305 0.23,-4.598 0.39,-6.824 h -7.44 l -0.22,5.75 v 0.383 h -0.16 c -2.61,-5.364 -7.67,-7.285 -13.26,-7.285 -11.42,0 -15.95,10.507 -15.95,20.398 0,10.422 5.29,20.391 17.24,20.391 4.92,0 9.75,-1.766 11.97,-6.368 h 0.16 z m -10.82,-51.445 c 8.81,0 10.88,8.203 10.88,15.41 0,6.981 -2.6,15.262 -10.88,15.262 -8.73,0 -10.88,-8.055 -10.88,-15.262 0,-7.207 2.68,-15.41 10.88,-15.41" /><path
         id="path26"
         style="fill:#231f20;fill-opacity:1;fill-rule:nonzero;stroke:none"
         d="m 1998.63,196.934 c 7.28,0 15.48,-3.067 14.94,-11.805 h -7.66 c 0.31,4.902 -3.46,6.512 -7.68,6.512 -3.9,0 -7.05,-1.836 -7.05,-6.133 0,-4.297 6.61,-4.598 9.36,-5.438 6.52,-2.148 14.02,-2.922 14.02,-11.582 0,-9.425 -9.2,-12.343 -17.09,-12.343 -8.04,0 -14.8,3.679 -14.72,12.578 h 7.67 c 0.16,-4.758 3.38,-7.285 7.81,-7.285 4.3,0 8.68,1.687 8.68,6.667 0,8.586 -23.38,2.149 -23.38,17.18 0,8.047 8.12,11.649 15.1,11.649" /><path
         id="path28"
         style="fill:#231f20;fill-opacity:1;fill-rule:nonzero;stroke:none"
         d="m 660.645,179.23 c 0.234,-14.269 -7.286,-23.085 -22.305,-23.085 -15.027,0 -22.539,8.816 -22.305,23.085 v 33.418 h 7.656 v -35.265 c 0.235,-9.5 5.911,-14.637 14.649,-14.637 8.742,0 14.414,5.137 14.648,14.637 v 35.265 h 7.657 V 179.23" /><path
         id="path30"
         style="fill:#231f20;fill-opacity:1;fill-rule:nonzero;stroke:none"
         d="m 681.035,190.109 h 0.156 c 2.461,4.825 7.825,6.825 11.661,6.825 2.675,0 14.57,-0.696 14.57,-13.036 v -26.601 h -7.285 v 24.226 c 0,6.36 -2.696,9.817 -8.828,9.817 0,0 -3.985,0.223 -7.051,-2.844 -1.074,-1.062 -3.067,-2.762 -3.067,-10.273 v -20.926 h -7.285 v 38.484 h 7.129 v -5.672" /><path
         id="path32"
         style="fill:#231f20;fill-opacity:1;fill-rule:nonzero;stroke:none"
         d="m 720.977,212.648 h 8.671 v -7.89 h -8.671 z m 0.703,-55.351 v 38.484 h 7.277 v -38.484 h -7.277" /><path
         id="path34"
         style="fill:#231f20;fill-opacity:1;fill-rule:nonzero;stroke:none"
         d="m 754.023,157.297 -16.093,38.484 h 8.047 l 12.265,-30.515 11.953,30.515 h 7.981 l -16.867,-38.484 h -7.286" /><path
         id="path36"
         style="fill:#231f20;fill-opacity:1;fill-rule:nonzero;stroke:none"
         d="m 790.527,175.156 c -0.547,-6.746 2.219,-13.718 9.649,-13.718 5.683,0 8.515,2.226 9.355,7.812 h 7.676 c -1.152,-8.73 -7.898,-13.105 -17.109,-13.105 -12.332,0 -17.246,8.738 -17.246,20.085 0,11.27 5.683,20.704 17.871,20.704 11.496,-0.235 16.933,-7.508 16.933,-18.172 v -3.606 z M 810,180.227 c 0.148,6.433 -2.762,11.414 -9.824,11.414 -6.055,0 -9.649,-5.137 -9.649,-11.414 H 810" /><path
         id="path38"
         style="fill:#231f20;fill-opacity:1;fill-rule:nonzero;stroke:none"
         d="m 835.605,157.297 h -7.285 v 38.484 h 7.285 v -7.429 h 0.149 c 1.074,5.281 5.984,7.968 11.269,7.968 0.926,0 1.688,-0.082 2.528,-0.082 v -6.89 c -0.996,0.379 -2.149,0.379 -3.145,0.379 -9.199,-0.301 -10.801,-5.215 -10.801,-13.34 v -19.09" /><path
         id="path40"
         style="fill:#231f20;fill-opacity:1;fill-rule:nonzero;stroke:none"
         d="m 869.785,196.934 c 7.285,0 15.488,-3.075 14.961,-11.805 h -7.676 c 0.313,4.902 -3.445,6.512 -7.656,6.512 -3.914,0 -7.059,-1.844 -7.059,-6.133 0,-4.285 6.59,-4.598 9.356,-5.438 6.512,-2.148 14.031,-2.91 14.031,-11.582 0,-9.433 -9.199,-12.343 -17.097,-12.343 -8.059,0 -14.797,3.679 -14.719,12.578 h 7.656 c 0.156,-4.758 3.379,-7.285 7.832,-7.285 4.289,0 8.652,1.675 8.652,6.667 0,8.586 -23.378,2.149 -23.378,17.18 0,8.047 8.125,11.649 15.097,11.649" /><path
         id="path42"
         style="fill:#231f20;fill-opacity:1;fill-rule:nonzero;stroke:none"
         d="m 894.941,212.648 h 8.653 v -7.89 h -8.653 z m 0.684,-55.351 v 38.484 h 7.285 v -38.484 h -7.285" /><path
         id="path44"
         style="fill:#231f20;fill-opacity:1;fill-rule:nonzero;stroke:none"
         d="m 917.941,195.781 v 8.203 l 7.274,2.297 v -10.5 l 8.906,0.227 v -5.442 l -8.906,0.079 v -24.832 c 0,-2.766 2.148,-4.063 4.765,-4.063 1.145,0 2.676,0.145 3.829,0.449 v -5.586 c -1.688,-0.078 -3.301,-0.468 -4.981,-0.468 -1.765,0 -3.144,0.078 -4.91,0.39 -1.145,0.223 -3.066,0.84 -4.289,2.52 -1.309,1.843 -1.688,1.992 -1.688,7.129 v 24.461 l -6.593,-0.079 v 5.442 l 6.593,-0.227" /><path
         id="path46"
         style="fill:#231f20;fill-opacity:1;fill-rule:nonzero;stroke:none"
         d="m 955.813,142.57 h -7.434 l 5.82,14.883 -16.015,38.328 h 8.125 l 12.031,-30.359 12.265,30.359 h 7.825 L 955.813,142.57" /><path
         id="path48"
         style="fill:#231f20;fill-opacity:1;fill-rule:nonzero;stroke:none"
         d="m 1033.55,176.535 c 0,-11.953 -6.52,-20.39 -19.16,-20.39 -12.66,0 -19.175,8.437 -19.175,20.39 0,11.961 6.515,20.399 19.175,20.399 12.64,0 19.16,-8.438 19.16,-20.399 z m -19.16,-15.097 c 8.66,0 11.5,6.894 11.5,15.097 0,8.203 -2.84,15.106 -11.5,15.106 -8.68,0 -11.51,-6.903 -11.51,-15.106 0,-8.203 2.83,-15.097 11.51,-15.097" /><path
         id="path50"
         style="fill:#231f20;fill-opacity:1;fill-rule:nonzero;stroke:none"
         d="m 1047.28,157.297 v 33.426 h -7.52 v 5.058 h 7.52 v 7.356 c 0.23,8.437 6.59,10.664 12.03,10.664 1.76,0 3.46,-0.461 5.21,-0.762 v -6.066 c -1.23,0.078 -2.45,0.226 -3.67,0.226 -4.14,0 -6.52,-1.066 -6.29,-5.285 v -6.133 h 8.89 v -5.058 h -8.89 v -33.426 h -7.28" /><path
         id="path52"
         style="fill:#231f20;fill-opacity:1;fill-rule:nonzero;stroke:none"
         d="m 1080.32,157.297 23.31,55.351 h 8.2 l 22.38,-55.351 h -8.35 l -5.98,14.414 h -25.69 l -5.98,-14.414 z m 16.49,21.004 h 20.62 l -10.05,26.758 z" /><path
         id="path54"
         style="fill:#231f20;fill-opacity:1;fill-rule:nonzero;stroke:none"
         d="m 1142.34,188.879 c -0.07,2.305 -0.23,4.609 -0.38,6.902 h 7.43 l 0.23,-6.133 h 0.16 c 2.22,5.52 7.05,7.286 13.1,7.286 10.82,0 16.18,-9.969 16.18,-20.399 0,-9.883 -4.6,-20.39 -18.47,-20.39 -3.15,0 -8.21,1.543 -10.73,5.527 h -0.24 V 142.57 h -7.28 z m 18.17,2.762 c -8.27,0 -10.89,-8.125 -10.89,-15.106 0,-7.207 2.07,-15.097 10.2,-15.097 8.9,0 11.58,7.89 11.58,15.097 0,7.203 -2.15,15.106 -10.89,15.106" /><path
         id="path56"
         style="fill:#231f20;fill-opacity:1;fill-rule:nonzero;stroke:none"
         d="m 1189.95,188.879 c -0.07,2.305 -0.23,4.609 -0.39,6.902 h 7.44 l 0.24,-6.133 h 0.14 c 2.23,5.52 7.07,7.286 13.12,7.286 10.8,0 16.17,-9.969 16.17,-20.399 0,-9.883 -4.6,-20.39 -18.47,-20.39 -3.15,0 -8.21,1.543 -10.74,5.527 h -0.22 V 142.57 h -7.29 z m 18.17,2.762 c -8.28,0 -10.88,-8.125 -10.88,-15.106 0,-7.207 2.07,-15.097 10.19,-15.097 8.89,0 11.57,7.89 11.57,15.097 0,7.203 -2.14,15.106 -10.88,15.106" /><path
         id="path58"
         style="fill:#231f20;fill-opacity:1;fill-rule:nonzero;stroke:none"
         d="m 1238.02,157.297 v 55.351 h 7.28 v -55.351 h -7.28" /><path
         id="path60"
         style="fill:#231f20;fill-opacity:1;fill-rule:nonzero;stroke:none"
         d="m 1259.41,212.648 h 8.66 v -7.89 h -8.66 z m 0.68,-55.351 v 38.484 h 7.29 v -38.484 h -7.29" /><path
         id="path62"
         style="fill:#231f20;fill-opacity:1;fill-rule:nonzero;stroke:none"
         d="m 1285.56,175.156 c -0.55,-6.746 2.23,-13.718 9.65,-13.718 5.68,0 8.51,2.226 9.35,7.812 h 7.68 c -1.15,-8.73 -7.89,-13.105 -17.11,-13.105 -12.33,0 -17.25,8.738 -17.25,20.085 0,11.27 5.69,20.704 17.87,20.704 11.51,-0.235 16.94,-7.508 16.94,-18.172 v -3.606 z m 19.47,5.071 c 0.16,6.433 -2.75,11.414 -9.82,11.414 -6.06,0 -9.65,-5.137 -9.65,-11.414 h 19.47" /><path
         id="path64"
         style="fill:#231f20;fill-opacity:1;fill-rule:nonzero;stroke:none"
         d="m 1349.72,212.648 h 7.28 v -48.535 c 0,-2.297 0.24,-4.59 0.39,-6.816 h -7.44 l -0.23,5.75 v 0.383 h -0.16 c -2.6,-5.371 -7.65,-7.285 -13.26,-7.285 -11.42,0 -15.94,10.507 -15.94,20.39 0,10.43 5.3,20.399 17.25,20.399 4.9,0 9.73,-1.766 11.95,-6.368 h 0.16 z m -10.8,-51.445 c 8.81,0 10.88,8.203 10.88,15.41 0,6.981 -2.61,15.25 -10.88,15.25 -8.75,0 -10.9,-8.043 -10.9,-15.25 0,-7.207 2.69,-15.41 10.9,-15.41" /><path
         id="path66"
         style="fill:#231f20;fill-opacity:1;fill-rule:nonzero;stroke:none"
         d="m 1394.04,173.469 c 0.15,-7.813 4.67,-10.723 12.1,-10.723 6.29,0 13.96,1.836 13.96,9.57 0,5.372 -4.44,7.598 -9.05,8.516 -9.12,1.992 -24.3,4.063 -24.3,16.484 0,12.032 10.96,16.485 21.31,16.485 9.43,0 18.71,-4.219 18.71,-14.953 h -8.05 c -0.31,6.211 -5.52,8.351 -11.03,8.351 -5.45,0 -12.89,-1.992 -12.89,-8.574 0,-6.289 4.45,-6.68 9.27,-8.203 10.2,-3.301 24.09,-3.301 24.09,-17.258 0,-12.566 -11.27,-17.019 -22.48,-17.019 -11.57,0 -20,4.902 -19.69,17.324 h 8.05" /><path
         id="path68"
         style="fill:#231f20;fill-opacity:1;fill-rule:nonzero;stroke:none"
         d="m 1460.27,183.438 c -0.38,4.835 -2.68,8.203 -7.89,8.203 -6.98,0 -9.67,-6.055 -9.67,-15.106 0,-9.047 2.69,-15.097 9.67,-15.097 4.83,0 7.82,3.144 8.2,8.66 h 7.28 c -0.6,-8.66 -7.05,-13.953 -15.56,-13.953 -12.35,0 -17.25,8.738 -17.25,20.085 0,11.27 5.67,20.704 17.87,20.704 8.13,0 14.26,-5.137 14.64,-13.496 h -7.29" /><path
         id="path70"
         style="fill:#231f20;fill-opacity:1;fill-rule:nonzero;stroke:none"
         d="m 1475.99,212.648 h 8.66 v -7.89 h -8.66 z m 0.68,-55.351 v 38.484 h 7.29 v -38.484 h -7.29" /><path
         id="path72"
         style="fill:#231f20;fill-opacity:1;fill-rule:nonzero;stroke:none"
         d="m 1503.28,175.156 c -0.53,-6.746 2.22,-13.718 9.66,-13.718 5.67,0 8.52,2.226 9.36,7.812 h 7.66 c -1.15,-8.73 -7.9,-13.105 -17.1,-13.105 -12.34,0 -17.24,8.738 -17.24,20.085 0,11.27 5.67,20.704 17.86,20.704 11.49,-0.235 16.94,-7.508 16.94,-18.172 v -3.606 z m 19.47,5.071 c 0.15,6.433 -2.76,11.414 -9.81,11.414 -6.05,0 -9.66,-5.137 -9.66,-11.414 h 19.47" /><path
         id="path74"
         style="fill:#231f20;fill-opacity:1;fill-rule:nonzero;stroke:none"
         d="m 1549.13,190.109 h 0.16 c 2.44,4.825 7.81,6.825 11.64,6.825 2.7,0 14.57,-0.696 14.57,-13.036 v -26.601 h -7.29 v 24.226 c 0,6.36 -2.67,9.817 -8.8,9.817 0,0 -3.99,0.223 -7.05,-2.844 -1.08,-1.062 -3.07,-2.762 -3.07,-10.273 V 157.297 H 1542 v 38.484 h 7.13 v -5.672" /><path
         id="path76"
         style="fill:#231f20;fill-opacity:1;fill-rule:nonzero;stroke:none"
         d="m 1609.78,183.438 c -0.39,4.835 -2.7,8.203 -7.9,8.203 -6.99,0 -9.66,-6.055 -9.66,-15.106 0,-9.047 2.67,-15.097 9.66,-15.097 4.83,0 7.82,3.144 8.2,8.66 h 7.28 c -0.61,-8.66 -7.06,-13.953 -15.56,-13.953 -12.35,0 -17.26,8.738 -17.26,20.085 0,11.27 5.69,20.704 17.87,20.704 8.13,0 14.26,-5.137 14.65,-13.496 h -7.28" /><path
         id="path78"
         style="fill:#231f20;fill-opacity:1;fill-rule:nonzero;stroke:none"
         d="m 1632.62,175.156 c -0.54,-6.746 2.22,-13.718 9.66,-13.718 5.67,0 8.51,2.226 9.35,7.812 h 7.67 c -1.16,-8.73 -7.9,-13.105 -17.1,-13.105 -12.34,0 -17.25,8.738 -17.25,20.085 0,11.27 5.68,20.704 17.86,20.704 11.5,-0.235 16.95,-7.508 16.95,-18.172 v -3.606 z m 19.47,5.071 c 0.15,6.433 -2.76,11.414 -9.81,11.414 -6.06,0 -9.66,-5.137 -9.66,-11.414 h 19.47" /><path
         id="path80"
         style="fill:#231f20;fill-opacity:1;fill-rule:nonzero;stroke:none"
         d="m 1683.61,196.934 c 7.28,0 15.48,-3.075 14.94,-11.805 h -7.66 c 0.3,4.902 -3.46,6.512 -7.68,6.512 -3.9,0 -7.05,-1.844 -7.05,-6.133 0,-4.285 6.61,-4.598 9.36,-5.438 6.51,-2.148 14.02,-2.91 14.02,-11.582 0,-9.433 -9.2,-12.343 -17.09,-12.343 -8.04,0 -14.8,3.679 -14.72,12.578 h 7.67 c 0.16,-4.758 3.37,-7.285 7.81,-7.285 4.3,0 8.68,1.675 8.68,6.667 0,8.586 -23.39,2.149 -23.39,17.18 0,8.047 8.12,11.649 15.11,11.649" /><path
         id="path82"
         style="fill:#231f20;fill-opacity:1;fill-rule:nonzero;stroke:none"
         d="M 660.566,126.211 V 70.8594 h -9.5 l -27.98,46.9926 H 622.93 V 70.8594 h -6.825 v 55.3516 h 10.497 l 26.992,-45.7696 h 0.156 v 45.7696 h 6.816" /><path
         id="path84"
         style="fill:#231f20;fill-opacity:1;fill-rule:nonzero;stroke:none"
         d="m 709.258,90.0977 c 0,-11.9532 -6.524,-20.3907 -19.16,-20.3907 -12.657,0 -19.18,8.4375 -19.18,20.3907 0,11.9533 6.523,20.3903 19.18,20.3903 12.636,0 19.16,-8.437 19.16,-20.3903 z M 690.098,75 c 8.652,0 11.496,6.8945 11.496,15.0977 0,8.2031 -2.844,15.0973 -11.496,15.0973 -8.672,0 -11.504,-6.8942 -11.504,-15.0973 C 678.594,81.8945 681.426,75 690.098,75" /><path
         id="path86"
         style="fill:#231f20;fill-opacity:1;fill-rule:nonzero;stroke:none"
         d="m 725.586,70.8594 h -7.285 v 38.4766 h 7.285 v -7.43 h 0.156 c 1.074,5.282 5.977,7.977 11.27,7.977 0.918,0 1.679,-0.078 2.519,-0.078 v -6.903 c -0.996,0.379 -2.136,0.379 -3.133,0.379 -9.199,-0.301 -10.812,-5.2146 -10.812,-13.3396 v -19.082" /><path
         id="path88"
         style="fill:#231f20;fill-opacity:1;fill-rule:nonzero;stroke:none"
         d="m 748.281,109.336 v 8.203 l 7.285,2.305 v -10.508 l 8.887,0.234 v -5.449 l -8.887,0.078 V 79.3633 c 0,-2.7617 2.149,-4.0586 4.747,-4.0586 1.152,0 2.687,0.1445 3.839,0.457 V 70.168 c -1.691,-0.0782 -3.293,-0.461 -4.992,-0.461 -1.758,0 -3.144,0.0782 -4.902,0.3828 -1.153,0.2227 -3.067,0.8477 -4.297,2.5274 -1.297,1.8359 -1.68,1.9922 -1.68,7.1289 v 24.4529 l -6.601,-0.078 v 5.449 l 6.601,-0.234" /><path
         id="path90"
         style="fill:#231f20;fill-opacity:1;fill-rule:nonzero;stroke:none"
         d="m 774.191,70.8594 v 55.3516 h 7.286 v -22.012 h 0.144 c 2.766,4.297 6.906,6.289 12.5,6.289 10.039,0 13.184,-6.66 13.184,-13.5739 V 70.8594 H 800.02 V 93.625 c 0,6.746 -1.758,11.121 -8.575,11.27 -2.918,0.078 -7.363,-2.141 -8.75,-5.3637 -1.679,-3.9844 -1.218,-6.7461 -1.218,-8.8946 V 70.8594 h -7.286" /><path
         id="path92"
         style="fill:#231f20;fill-opacity:1;fill-rule:nonzero;stroke:none"
         d="M 875.234,109.336 861.66,70.8594 h -8.281 l -8.965,31.6606 h -0.156 l -9.961,-31.6606 h -8.516 l -12.715,38.4766 h 7.891 l 9.277,-30.9649 h 0.157 l 9.582,30.9649 h 9.422 l 8.671,-30.3516 h 0.157 l 9.57,30.3516 h 7.441" /><path
         id="path94"
         style="fill:#231f20;fill-opacity:1;fill-rule:nonzero;stroke:none"
         d="M 886.895,88.7109 C 886.348,81.9727 889.117,75 896.543,75 c 5.684,0 8.516,2.2188 9.355,7.8125 h 7.676 C 912.422,74.0742 905.68,69.707 896.465,69.707 c -12.332,0 -17.246,8.7305 -17.246,20.0782 0,11.2698 5.683,20.7028 17.871,20.7028 11.5,-0.234 16.933,-7.508 16.933,-18.1638 v -3.6133 z m 19.472,5.0704 c 0.153,6.4337 -2.758,11.4137 -9.824,11.4137 -6.055,0 -9.648,-5.136 -9.648,-11.4137 h 19.472" /><path
         id="path96"
         style="fill:#231f20;fill-opacity:1;fill-rule:nonzero;stroke:none"
         d="m 937.871,110.488 c 7.285,0 15.488,-3.066 14.953,-11.7966 h -7.668 c 0.313,4.9026 -3.457,6.5036 -7.664,6.5036 -3.918,0 -7.062,-1.836 -7.062,-6.1325 0,-4.2852 6.601,-4.5898 9.355,-5.4375 6.524,-2.1406 14.035,-2.9102 14.035,-11.5742 0,-9.4336 -9.199,-12.3438 -17.101,-12.3438 -8.047,0 -14.793,3.6719 -14.715,12.5703 h 7.664 C 929.824,77.5195 933.047,75 937.492,75 c 4.285,0 8.66,1.6797 8.66,6.6602 0,8.5937 -23.379,2.1484 -23.379,17.1796 0,8.0552 8.125,11.6482 15.098,11.6482" /><path
         id="path98"
         style="fill:#231f20;fill-opacity:1;fill-rule:nonzero;stroke:none"
         d="m 965.859,109.336 v 8.203 l 7.278,2.305 v -10.508 l 8.894,0.234 v -5.449 l -8.894,0.078 V 79.3633 c 0,-2.7617 2.148,-4.0586 4.754,-4.0586 1.152,0 2.675,0.1445 3.828,0.457 V 70.168 c -1.68,-0.0782 -3.289,-0.461 -4.981,-0.461 -1.758,0 -3.144,0.0782 -4.902,0.3828 -1.152,0.2227 -3.066,0.8477 -4.297,2.5274 -1.309,1.8359 -1.68,1.9922 -1.68,7.1289 v 24.4529 l -6.601,-0.078 v 5.449 l 6.601,-0.234" /><path
         id="path100"
         style="fill:#231f20;fill-opacity:1;fill-rule:nonzero;stroke:none"
         d="M 996.066,88.7109 C 995.52,81.9727 998.281,75 1005.71,75 c 5.69,0 8.52,2.2188 9.36,7.8125 h 7.68 c -1.16,-8.7383 -7.91,-13.1055 -17.11,-13.1055 -12.339,0 -17.249,8.7305 -17.249,20.0782 0,11.2698 5.683,20.7028 17.869,20.7028 11.49,-0.234 16.94,-7.508 16.94,-18.1638 v -3.6133 z m 19.474,5.0704 c 0.14,6.4337 -2.77,11.4137 -9.83,11.4137 -6.05,0 -9.644,-5.136 -9.644,-11.4137 h 19.474" /><path
         id="path102"
         style="fill:#231f20;fill-opacity:1;fill-rule:nonzero;stroke:none"
         d="m 1039.23,70.8594 h -7.28 v 38.4766 h 7.28 v -7.43 h 0.15 c 1.07,5.282 5.98,7.977 11.26,7.977 0.93,0 1.7,-0.078 2.54,-0.078 v -6.903 c -1,0.379 -2.15,0.379 -3.15,0.379 -9.2,-0.301 -10.8,-5.2146 -10.8,-13.3396 v -19.082" /><path
         id="path104"
         style="fill:#231f20;fill-opacity:1;fill-rule:nonzero;stroke:none"
         d="m 1067.9,103.672 h 0.16 c 2.44,4.824 7.81,6.816 11.64,6.816 2.69,0 14.57,-0.683 14.57,-13.0271 V 70.8594 h -7.29 v 24.2187 c 0,6.3669 -2.67,9.8169 -8.8,9.8169 0,0 -3.99,0.222 -7.05,-2.844 -1.08,-1.063 -3.07,-2.7541 -3.07,-10.2737 V 70.8594 h -7.29 v 38.4766 h 7.13 v -5.664" /><path
         id="path106"
         style="fill:#231f20;fill-opacity:1;fill-rule:nonzero;stroke:none"
         d="m 1132.45,87.0313 c 0.16,-7.8204 4.68,-10.7305 12.11,-10.7305 6.29,0 13.96,1.8437 13.96,9.5781 0,5.3711 -4.45,7.5977 -9.05,8.5156 -9.13,1.9922 -24.3,4.0625 -24.3,16.4845 0,12.031 10.96,16.484 21.31,16.484 9.43,0 18.71,-4.218 18.71,-14.961 h -8.05 c -0.31,6.211 -5.53,8.36 -11.03,8.36 -5.45,0 -12.9,-1.992 -12.9,-8.582 0,-6.289 4.46,-6.672 9.28,-8.203 10.2,-3.293 24.08,-3.293 24.08,-17.2582 0,-12.5665 -11.27,-17.0118 -22.47,-17.0118 -11.57,0 -20.01,4.9024 -19.69,17.3243 h 8.04" /><path
         id="path108"
         style="fill:#231f20;fill-opacity:1;fill-rule:nonzero;stroke:none"
         d="m 1233.49,109.336 -13.57,-38.4766 h -8.27 l -8.98,31.6606 h -0.15 l -9.97,-31.6606 h -8.51 l -12.72,38.4766 h 7.89 l 9.28,-30.9649 h 0.15 l 9.59,30.9649 h 9.43 l 8.66,-30.3516 h 0.16 l 9.57,30.3516 h 7.44" /><path
         id="path110"
         style="fill:#231f20;fill-opacity:1;fill-rule:nonzero;stroke:none"
         d="m 1239.93,126.211 h 8.66 v -7.898 h -8.66 z m 0.69,-55.3516 v 38.4766 h 7.28 V 70.8594 h -7.28" /><path
         id="path112"
         style="fill:#231f20;fill-opacity:1;fill-rule:nonzero;stroke:none"
         d="m 1262.94,109.336 v 8.203 l 7.27,2.305 v -10.508 l 8.9,0.234 v -5.449 l -8.9,0.078 V 79.3633 c 0,-2.7617 2.15,-4.0586 4.76,-4.0586 1.16,0 2.68,0.1445 3.83,0.457 V 70.168 c -1.68,-0.0782 -3.29,-0.461 -4.98,-0.461 -1.76,0 -3.14,0.0782 -4.9,0.3828 -1.15,0.2227 -3.07,0.8477 -4.3,2.5274 -1.31,1.8359 -1.68,1.9922 -1.68,7.1289 v 24.4529 l -6.6,-0.078 v 5.449 l 6.6,-0.234" /><path
         id="path114"
         style="fill:#231f20;fill-opacity:1;fill-rule:nonzero;stroke:none"
         d="m 1313,70.8594 h -27.99 v 5.0586 l 19.4,28.359 h -19.09 v 5.059 h 26.92 v -5.059 L 1292.92,75.918 H 1313 v -5.0586" /><path
         id="path116"
         style="fill:#231f20;fill-opacity:1;fill-rule:nonzero;stroke:none"
         d="M 1326.42,88.7109 C 1325.87,81.9727 1328.63,75 1336.07,75 c 5.68,0 8.51,2.2188 9.35,7.8125 h 7.68 c -1.15,-8.7383 -7.9,-13.1055 -17.11,-13.1055 -12.33,0 -17.25,8.7305 -17.25,20.0782 0,11.2698 5.69,20.7028 17.87,20.7028 11.5,-0.234 16.94,-7.508 16.94,-18.1638 v -3.6133 z m 19.47,5.0704 c 0.15,6.4337 -2.76,11.4137 -9.82,11.4137 -6.06,0 -9.65,-5.136 -9.65,-11.4137 h 19.47" /><path
         id="path118"
         style="fill:#231f20;fill-opacity:1;fill-rule:nonzero;stroke:none"
         d="m 1371.5,70.8594 h -7.29 v 38.4766 h 7.29 v -7.43 h 0.15 c 1.08,5.282 5.98,7.977 11.27,7.977 0.92,0 1.68,-0.078 2.52,-0.078 v -6.903 c -0.99,0.379 -2.14,0.379 -3.14,0.379 -9.19,-0.301 -10.8,-5.2146 -10.8,-13.3396 v -19.082" /><path
         id="path120"
         style="fill:#231f20;fill-opacity:1;fill-rule:nonzero;stroke:none"
         d="m 1393.57,70.8594 v 55.3516 h 7.28 V 70.8594 h -7.28" /><path
         id="path122"
         style="fill:#231f20;fill-opacity:1;fill-rule:nonzero;stroke:none"
         d="m 1436.81,94.6211 c 0,6.6679 -0.38,10.5739 -8.13,10.5739 -3.67,0 -7.13,-2.136 -7.2,-6.1325 h -7.67 c 0.38,8.4375 6.98,11.4255 14.56,11.4255 7.91,0 15.72,-2.375 15.72,-13.1052 V 78.9844 c 0,-1.6875 0.08,-4.9102 0.32,-8.125 h -4.92 c -0.69,0 -1.99,-0.3906 -2.07,0.5273 -0.14,1.7696 -0.3,3.4571 -0.38,5.2149 h -0.15 c -2.39,-4.8243 -6.68,-6.8946 -11.96,-6.8946 -6.68,0 -13.41,3.4493 -13.41,10.9571 0,10.8203 9.57,13.957 18.69,13.957 z m -7.29,-5.0586 c -4.44,-0.2266 -10.35,-1.8477 -10.35,-7.4336 0,-4.7539 3.3,-7.1289 7.6,-7.1289 8.58,0 10.19,7.4336 10.04,14.5625 h -7.29" /><path
         id="path124"
         style="fill:#231f20;fill-opacity:1;fill-rule:nonzero;stroke:none"
         d="m 1463.72,103.672 h 0.16 c 2.45,4.824 7.81,6.816 11.65,6.816 2.68,0 14.56,-0.683 14.56,-13.0271 V 70.8594 h -7.28 v 24.2187 c 0,6.3669 -2.68,9.8169 -8.81,9.8169 0,0 -3.99,0.222 -7.05,-2.844 -1.08,-1.063 -3.07,-2.7541 -3.07,-10.2737 V 70.8594 h -7.29 v 38.4766 h 7.13 v -5.664" /><path
         id="path126"
         style="fill:#231f20;fill-opacity:1;fill-rule:nonzero;stroke:none"
         d="m 1528.51,126.211 h 7.28 V 77.6758 c 0,-2.3047 0.23,-4.5977 0.37,-6.8164 h -7.42 l -0.23,5.7422 v 0.3906 h -0.16 c -2.61,-5.3711 -7.67,-7.2852 -13.26,-7.2852 -11.43,0 -15.95,10.5078 -15.95,20.3907 0,10.4293 5.29,20.3903 17.26,20.3903 4.9,0 9.73,-1.758 11.95,-6.367 h 0.16 z M 1517.7,74.7656 c 8.82,0 10.89,8.2032 10.89,15.4102 0,6.9726 -2.62,15.2542 -10.89,15.2542 -8.74,0 -10.89,-8.0472 -10.89,-15.2542 0,-7.207 2.67,-15.4102 10.89,-15.4102" /><path
         id="path128"
         style="fill:#231f20;fill-opacity:1;fill-rule:nonzero;stroke:none"
         d="m 208.195,0 v 283.469 h -9.699 V 0 h 9.699" /><path
         id="path130"
         style="fill:#231f20;fill-opacity:1;fill-rule:nonzero;stroke:none"
         d="m 52.7266,189.23 c 4.5976,6.493 15.1445,26.778 45.9648,26.778 21.7186,0 33.2616,-8.653 37.8516,-12.981 13.254,-12.976 14.062,-31.64 14.062,-42.175 V 70.8984 H 94.9023 v 79.0626 c 0,1.594 -0.2539,20.078 -18.9257,20.078 -19.7461,0 -20.2735,-18.133 -20.2735,-22.988 V 70.8984 H 0 V 212.488 H 52.7266 V 189.23" /><path
         id="path132"
         style="fill:#231f20;fill-opacity:1;fill-rule:nonzero;stroke:none"
         d="m 455.391,215.754 c -10.438,0 -18.907,-8.477 -18.907,-18.906 0,-10.442 8.469,-18.899 18.907,-18.899 9.57,0 13.808,6.906 13.925,6.555 5.411,-16.516 -23.289,-102.1485 -62.519,-102.1485 -12.695,0 -16.621,10.2734 -16.621,23.5745 0,15.73 4.531,31.758 10.293,53.535 6.035,21.465 11.484,42.031 14.511,53.023 H 377.188 C 372.031,193.926 335.059,85.0703 303.691,85.0703 c -3.925,0 -8.164,4.2383 -8.164,11.793 0,4.2307 3.633,19.0547 5.45,24.4957 l 12.382,42.332 c 2.715,8.782 6.661,20.247 6.661,28.723 0,14.813 -10.274,23.281 -22.364,23.281 -34.179,0 -48.379,-30.527 -55.359,-42.929 l 5.762,-3.633 c 3.328,5.437 18.445,31.133 28.718,31.133 1.524,0 2.735,-1.797 2.735,-7.246 0,-3.633 -2.11,-11.79 -4.239,-19.348 L 262.266,130.734 C 260.156,122.863 255,107.746 255,96.8633 c 0,-19.957 15.137,-29.9375 28.438,-29.9375 48.476,0 69.55,58.6722 76.503,75.5942 l 0.606,-0.606 c -0.918,-3.328 -5.156,-21.16 -5.156,-30.242 0,-25.9962 11.621,-44.7462 37.011,-44.7462 73.625,0 113.801,148.8282 62.989,148.8282" /></g></g></svg>